<?xml version="1.0" encoding="UTF-8"?>
<!DOCTYPE svg PUBLIC "-//W3C//DTD SVG 1.1//EN" "http://www.w3.org/Graphics/SVG/1.1/DTD/svg11.dtd">
<svg version="1.2" width="254mm" height="254mm" viewBox="0 0 25400 25400" preserveAspectRatio="xMidYMid" fill-rule="evenodd" stroke-width="28.222" stroke-linejoin="round" xmlns="http://www.w3.org/2000/svg" xmlns:ooo="http://xml.openoffice.org/svg/export" xmlns:xlink="http://www.w3.org/1999/xlink" xmlns:presentation="http://sun.com/xmlns/staroffice/presentation" xmlns:smil="http://www.w3.org/2001/SMIL20/" xmlns:anim="urn:oasis:names:tc:opendocument:xmlns:animation:1.0" xml:space="preserve">
 <defs class="ClipPathGroup">
  <clipPath id="presentation_clip_path" clipPathUnits="userSpaceOnUse">
   <rect x="0" y="0" width="25400" height="25400"/>
  </clipPath>
  <clipPath id="presentation_clip_path_shrink" clipPathUnits="userSpaceOnUse">
   <rect x="25" y="25" width="25350" height="25350"/>
  </clipPath>
 </defs>
 <defs class="TextShapeIndex">
  <g ooo:slide="id1" ooo:id-list="id3 id4 id5"/>
 </defs>
 <defs class="EmbeddedBulletChars">
  <g id="bullet-char-template-57356" transform="scale(0.00048828125,-0.00048828125)">
   <path d="M 580,1141 L 1163,571 580,0 -4,571 580,1141 Z"/>
  </g>
  <g id="bullet-char-template-57354" transform="scale(0.00048828125,-0.00048828125)">
   <path d="M 8,1128 L 1137,1128 1137,0 8,0 8,1128 Z"/>
  </g>
  <g id="bullet-char-template-10146" transform="scale(0.00048828125,-0.00048828125)">
   <path d="M 174,0 L 602,739 174,1481 1456,739 174,0 Z M 1358,739 L 309,1346 659,739 1358,739 Z"/>
  </g>
  <g id="bullet-char-template-10132" transform="scale(0.00048828125,-0.00048828125)">
   <path d="M 2015,739 L 1276,0 717,0 1260,543 174,543 174,936 1260,936 717,1481 1274,1481 2015,739 Z"/>
  </g>
  <g id="bullet-char-template-10007" transform="scale(0.00048828125,-0.00048828125)">
   <path d="M 0,-2 C -7,14 -16,27 -25,37 L 356,567 C 262,823 215,952 215,954 215,979 228,992 255,992 264,992 276,990 289,987 310,991 331,999 354,1012 L 381,999 492,748 772,1049 836,1024 860,1049 C 881,1039 901,1025 922,1006 886,937 835,863 770,784 769,783 710,716 594,584 L 774,223 C 774,196 753,168 711,139 L 727,119 C 717,90 699,76 672,76 641,76 570,178 457,381 L 164,-76 C 142,-110 111,-127 72,-127 30,-127 9,-110 8,-76 1,-67 -2,-52 -2,-32 -2,-23 -1,-13 0,-2 Z"/>
  </g>
  <g id="bullet-char-template-10004" transform="scale(0.00048828125,-0.00048828125)">
   <path d="M 285,-33 C 182,-33 111,30 74,156 52,228 41,333 41,471 41,549 55,616 82,672 116,743 169,778 240,778 293,778 328,747 346,684 L 369,508 C 377,444 397,411 428,410 L 1163,1116 C 1174,1127 1196,1133 1229,1133 1271,1133 1292,1118 1292,1087 L 1292,965 C 1292,929 1282,901 1262,881 L 442,47 C 390,-6 338,-33 285,-33 Z"/>
  </g>
  <g id="bullet-char-template-9679" transform="scale(0.00048828125,-0.00048828125)">
   <path d="M 813,0 C 632,0 489,54 383,161 276,268 223,411 223,592 223,773 276,916 383,1023 489,1130 632,1184 813,1184 992,1184 1136,1130 1245,1023 1353,916 1407,772 1407,592 1407,412 1353,268 1245,161 1136,54 992,0 813,0 Z"/>
  </g>
  <g id="bullet-char-template-8226" transform="scale(0.00048828125,-0.00048828125)">
   <path d="M 346,457 C 273,457 209,483 155,535 101,586 74,649 74,723 74,796 101,859 155,911 209,963 273,989 346,989 419,989 480,963 531,910 582,859 608,796 608,723 608,648 583,586 532,535 482,483 420,457 346,457 Z"/>
  </g>
  <g id="bullet-char-template-8211" transform="scale(0.00048828125,-0.00048828125)">
   <path d="M -4,459 L 1135,459 1135,606 -4,606 -4,459 Z"/>
  </g>
  <g id="bullet-char-template-61548" transform="scale(0.00048828125,-0.00048828125)">
   <path d="M 173,740 C 173,903 231,1043 346,1159 462,1274 601,1332 765,1332 928,1332 1067,1274 1183,1159 1299,1043 1357,903 1357,740 1357,577 1299,437 1183,322 1067,206 928,148 765,148 601,148 462,206 346,322 231,437 173,577 173,740 Z"/>
  </g>
 </defs>
 <defs class="TextEmbeddedBitmaps"/>
 <g>
  <g id="id2" class="Master_Slide">
   <g id="bg-id2" class="Background"/>
   <g id="bo-id2" class="BackgroundObjects"/>
  </g>
 </g>
 <g class="SlideGroup">
  <g>
   <g id="container-id1">
    <g id="id1" class="Slide" clip-path="url(#presentation_clip_path)">
     <g class="Page">
      <g class="Group">
       <g class="com.sun.star.drawing.PolyPolygonShape">
        <g id="id3">
         <rect class="BoundingBox" stroke="none" fill="none" x="126" y="8140" width="25022" height="6329"/>
         <path fill="rgb(255,255,255)" stroke="none" d="M 811,8248 L 809,8299 757,8819 678,9163 644,9309 554,9646 383,10039 350,10116 183,10447 126,10538 142,10541 145,10543 324,10579 322,10538 306,10515 298,10503 275,10481 286,10460 312,10437 332,10435 359,10434 382,10415 383,10387 373,10358 397,10335 404,10334 412,10332 420,10281 420,10274 429,10268 440,10260 452,10251 455,10251 481,10247 522,10225 575,10172 639,10144 619,10121 618,10091 645,10014 644,9991 618,9962 631,9927 620,9900 732,9759 719,9745 693,9720 687,9714 696,9698 740,9671 744,9669 787,9618 756,9569 799,9534 805,9530 835,9504 850,9479 809,9383 756,9348 776,9327 760,9309 782,9275 775,9225 808,9172 806,9142 805,9130 869,9022 884,8998 858,8922 850,8896 846,8884 852,8865 858,8844 879,8795 867,8750 872,8693 908,8584 924,8512 930,8484 927,8387 927,8384 915,8298 938,8220 935,8140 814,8140 811,8248 Z M 1139,8227 L 1162,8278 1211,8364 1245,8424 1264,8531 1255,8575 1268,8616 1265,8659 1262,8689 1273,8713 1290,8739 1314,8748 1360,8765 1368,8814 1360,8845 1390,8876 1403,8922 1424,9011 1437,9108 1468,9188 1437,9290 1446,9336 1429,9405 1431,9485 1427,9498 1411,9548 1392,9607 1353,9638 1346,9670 1278,9838 1173,10041 1181,10049 1210,10041 1257,10012 1309,9981 1342,9973 1381,9945 1397,9889 1425,9875 1436,9872 1455,9870 1488,9887 1519,9940 1487,9956 1485,9958 1465,9958 1459,9979 1481,10031 1476,10062 1469,10100 1573,10159 1580,10183 1593,10194 1638,10191 1590,10234 1610,10274 1605,10309 1639,10376 1624,10421 1732,10384 1706,10408 1708,10431 1668,10429 1625,10460 1616,10462 1600,10498 1592,10493 1571,10482 1549,10495 1558,10513 1528,10522 1528,10530 1528,10557 1534,10599 1555,10637 1549,10672 1497,10743 1506,10750 1528,10766 1535,10772 1540,10776 1547,10769 1633,10682 1649,10667 1659,10657 1667,10649 1742,10578 1868,10487 1896,10479 1899,10477 1957,10461 2002,10447 2010,10444 2012,10443 2111,10541 2132,10582 2173,10663 2182,10677 2205,10722 2253,10883 2325,10990 2378,11021 2378,11022 2410,11040 2492,11153 2519,11166 2573,11193 2588,11181 2633,11142 2652,11134 2676,11126 2688,11121 2718,11111 2744,11114 2801,11123 2860,11163 2919,11195 3020,11202 3130,11243 3188,11305 3215,11324 3259,11354 3296,11380 3397,11483 3445,11568 3453,11575 3483,11601 3512,11628 3531,11645 3680,11705 3749,11704 3839,11703 3895,11776 3960,11861 4082,11897 4137,11931 4200,11968 4208,11972 4218,11974 4284,11996 4317,12007 4332,12012 4390,12031 4467,12025 4605,11945 4643,11949 4738,11958 4772,12009 4748,12134 4740,12227 4795,12326 4853,12368 4882,12389 4888,12393 4892,12397 5049,12400 5099,12384 5146,12315 5190,12217 5278,12187 5392,12176 5426,12162 5555,12125 5572,12121 5622,12114 5749,12095 5756,12093 5763,12093 5807,12095 5865,12095 6002,12112 6057,12120 6058,12120 6179,12153 6206,12159 6226,12165 6258,12172 6340,12172 6362,12172 6473,12213 6493,12220 6572,12236 6676,12204 6800,12131 6906,12073 6994,12048 6995,12048 7017,12043 7029,12050 7043,12059 7063,12072 7177,12440 7200,12469 7256,12534 7283,12590 7307,12640 7340,12708 7381,12791 7425,12768 7426,12767 7426,12678 7457,12664 7476,12655 7502,12697 7513,12713 7519,12759 7532,12756 7548,12754 7578,12755 7590,12756 7677,12837 7683,12875 7689,12909 7695,12920 7701,12932 7713,12953 7717,12958 7728,12978 7739,12996 7828,13017 7833,13030 7835,13038 7838,13050 7802,13092 7795,13099 7795,13109 7795,13123 7796,13145 7806,13161 7810,13166 7878,13121 7892,13112 7899,13122 7918,13153 7936,13208 7945,13237 7947,13245 7995,13264 7996,13263 8052,13232 8073,13247 8149,13300 8160,13308 8198,13324 8203,13346 8209,13378 8209,13378 8223,13416 8218,13453 8217,13462 8213,13467 8197,13485 8191,13502 8175,13566 8189,13570 8200,13573 8226,13580 8275,13659 8274,13665 8265,13723 8266,13749 8267,13773 8327,13814 8330,13856 8330,13865 8326,13895 8324,13924 8359,13965 8350,13979 8338,13996 8327,14013 8311,14027 8291,14043 8308,14084 8310,14086 8331,14110 8333,14129 8337,14156 8312,14157 8304,14158 8262,14159 8262,14159 8224,14169 8208,14184 8184,14206 8185,14214 8187,14255 8155,14304 8150,14305 8104,14317 8097,14319 8056,14355 8036,14378 8009,14412 7946,14427 7937,14428 7876,14439 7864,14467 20457,14467 20457,14458 20437,14346 20385,14254 20398,14065 20430,13953 20456,13911 20471,13886 20534,13782 20572,13730 20637,13638 20640,13635 20851,13389 20861,13276 20864,13238 20910,13159 21088,13050 21237,13005 21341,12960 21400,12893 21453,12901 21479,12919 21522,12980 21618,13049 21679,13065 21756,13049 21809,12984 21874,12907 21898,12842 22017,12792 22103,12738 22112,12732 22187,12698 22404,12571 22425,12516 22428,12508 22439,12479 22504,12312 22524,12199 22542,12103 22565,12073 22597,12032 22608,12018 22618,12006 22620,11986 22633,11917 22573,11848 22574,11781 22738,11647 22844,11543 23019,11471 23039,11462 23143,11492 23308,11546 23352,11599 23442,11660 23502,11548 23569,11451 23682,11407 23800,11499 23809,11505 23809,11506 23865,11502 23899,11500 23966,11496 24011,11492 24063,11538 24153,11509 24198,11484 24243,11458 24325,11451 24393,11376 24386,11294 24371,11271 24320,11196 24314,11129 24359,11084 24372,11084 24472,11078 24532,11018 24549,10847 24603,10698 24710,10638 24927,10544 24970,10526 24983,10520 25064,10486 25075,10486 25146,10487 25136,10467 25109,10411 25098,10404 25087,10397 25065,10382 25058,10365 25055,10357 25048,10338 25038,10312 25035,10306 25012,10301 24978,10295 24945,10289 24931,10269 24886,10206 24860,10217 24834,10228 24814,10205 24789,10176 24752,10174 24624,10158 24541,10187 24496,10165 24468,10157 24436,10148 24339,10102 24273,10042 24249,10087 24206,10093 24197,10094 24193,10097 24178,10110 24135,10147 24124,10158 24121,10160 24084,10115 24048,10142 24009,10174 23984,10193 23971,10204 23959,10192 23941,10173 23926,10151 23881,10158 23851,10172 23798,10142 23746,10104 23701,10112 23665,10108 23588,10103 23561,10095 23552,10087 23547,10083 23524,10063 23515,10055 23501,10033 23502,10011 23504,10007 23513,9986 23528,9962 23543,9940 23582,9903 23655,9827 23674,9811 23772,9745 23825,9708 23818,9618 23807,9251 23800,9151 23797,9106 23790,9006 23787,8973 23713,8808 23708,8806 23645,8777 23645,8725 23736,8680 23745,8679 23888,8645 23955,8567 23972,8548 23993,8468 23996,8458 24071,8384 24080,8370 24118,8303 24111,8230 24106,8184 24105,8175 24105,8140 1117,8140 1139,8227 Z"/>
        </g>
       </g>
       <g class="com.sun.star.drawing.PolyPolygonShape">
        <g id="id4">
         <rect class="BoundingBox" stroke="none" fill="none" x="7486" y="14435" width="13183" height="6267"/>
         <path fill="rgb(255,255,255)" stroke="none" d="M 7891,14436 L 7876,14439 7849,14503 7829,14525 7791,14544 7756,14562 7732,14601 7721,14619 7713,14631 7713,14632 7686,14725 7683,14735 7680,14756 7673,14799 7670,14812 7670,14814 7668,14846 7679,14860 7681,14861 7727,14877 7734,14903 7731,14904 7731,14905 7728,14906 7727,14909 7725,14911 7725,14918 7727,14924 7728,14927 7732,14929 7734,14930 7738,14931 7740,14931 7744,14931 7748,14931 7726,14974 7709,15006 7703,15032 7760,15112 7771,15156 7773,15167 7770,15194 7769,15204 7766,15217 7763,15243 7759,15252 7754,15264 7740,15298 7728,15307 7677,15341 7672,15352 7645,15392 7631,15416 7627,15469 7627,15470 7618,15474 7602,15482 7535,15517 7509,15572 7487,15627 7508,15651 7544,15690 7544,15691 7547,15699 7572,15755 7574,15761 7571,15841 7564,15860 7503,16003 7509,16152 7519,16253 7522,16288 7554,16537 7570,16573 7669,16659 7720,16764 7799,17026 7821,17113 7842,17204 7881,17225 7940,17253 7945,17247 7986,17199 8009,17175 8033,17149 8041,17139 8049,17106 8169,17002 8389,16989 8408,17015 8423,17036 8452,17048 8475,17040 8498,17033 8530,17058 8567,17094 8593,17112 8593,17112 8623,17124 8655,17105 8658,17104 8691,17077 8738,17087 8756,17099 8794,17123 8794,17124 8794,17124 8821,17193 8808,17258 8816,17322 8857,17371 8936,17387 8969,17394 9024,17406 9066,17440 9065,17442 9056,17489 9039,17569 9018,17619 9011,17634 9018,17666 9102,17721 9166,17772 9232,17776 9304,17743 9309,17741 9395,17692 9415,17684 9436,17676 9483,17692 9514,17766 9555,17817 9560,17821 9607,17845 9645,17844 9695,17879 9709,17889 9759,17980 9778,18011 9812,18070 9826,18094 9893,18142 10061,18187 10193,18218 10314,18271 10359,18311 10421,18366 10445,18388 10499,18483 10504,18494 10526,18545 10541,18579 10576,18629 10590,18649 10602,18664 10665,18734 10682,18755 10784,18797 10786,18798 10792,18800 10797,18803 10833,18825 10873,18851 10913,18950 10936,19051 10971,19296 10974,19333 10982,19527 10985,19602 10990,19693 10975,19796 10966,19808 10934,19854 10900,19905 10893,19964 10885,20044 10884,20057 10892,20077 10942,20207 10946,20219 10968,20233 11153,20357 11229,20396 11249,20407 11346,20479 11355,20496 11400,20582 11428,20583 11439,20585 11494,20587 11625,20523 11699,20469 11710,20460 11943,20467 12039,20525 12130,20672 12207,20699 12211,20701 12283,20669 12296,20600 12282,20580 12255,20541 12250,20534 12195,20473 12191,20469 12198,20463 12219,20445 12276,20420 12333,20358 12369,20308 12372,20304 12378,20296 12382,20290 12398,20294 12404,20297 12458,20316 12483,20325 12500,20331 12601,20341 12631,20343 12663,20319 12695,20296 12687,20221 12759,20219 12870,20313 12946,20366 13019,20416 13030,20415 13164,20396 13290,20356 13295,20355 13330,20349 13435,20330 13515,20309 13566,20297 13605,20257 13685,20254 13819,20342 13909,20469 13924,20490 14071,20569 14323,20627 14363,20638 14654,20669 14858,20643 14984,20537 14987,20534 15005,20515 15136,20363 15214,20276 15216,20274 15403,20128 15697,19926 15895,19846 15908,19841 15922,19841 15976,19845 16008,19846 16010,19847 16021,19862 16028,19868 16051,19949 15991,20016 15978,20104 15960,20174 16030,20178 16046,20178 16065,20177 16104,20174 16149,20169 16170,20112 16253,20039 16231,19995 16253,19956 16292,19999 16303,19989 16316,19980 16331,19971 16347,19962 16355,19958 16364,19955 16372,19953 16376,19953 16379,19953 16383,19953 16386,19953 16389,19954 16392,19956 16398,19959 16405,19961 16418,19965 16432,19968 16445,19970 16457,19972 16467,19972 16475,19972 16477,19959 16483,19929 16487,19913 16490,19897 16494,19884 16496,19880 16497,19878 16498,19877 16499,19875 16500,19874 16504,19870 16514,19862 16540,19843 16576,19820 16578,19788 16581,19759 16594,19757 16624,19751 16642,19748 16658,19746 16672,19746 16677,19746 16679,19746 16681,19746 16683,19747 16684,19747 16686,19746 16687,19746 16689,19745 16690,19744 16691,19743 16692,19742 16694,19739 16696,19736 16697,19732 16699,19728 16701,19720 16702,19711 16702,19704 16703,19698 16703,19697 16702,19695 16702,19694 16702,19693 16701,19692 16701,19691 16700,19690 16700,19690 16698,19688 16696,19686 16694,19685 16692,19684 16689,19683 16686,19682 16684,19682 16681,19681 16675,19680 16668,19680 16665,19680 16661,19681 16652,19682 16642,19683 16631,19684 16620,19685 16615,19685 16610,19684 16606,19683 16601,19681 16597,19679 16595,19678 16594,19676 16591,19673 16588,19670 16584,19667 16580,19663 16572,19657 16563,19650 16563,19650 16532,19628 16531,19605 16526,19552 16522,19522 16518,19493 16512,19469 16509,19460 16508,19456 16506,19453 16496,19436 16479,19410 16434,19341 16434,19341 16434,19341 16433,19341 16433,19341 16433,19340 16433,19340 16433,19340 16433,19340 16433,19340 16433,19339 16433,19339 16432,19339 16432,19339 16432,19339 16432,19339 16432,19339 16432,19339 16431,19338 16431,19338 16431,19338 16431,19338 16431,19338 16431,19338 16431,19338 16430,19338 16428,19334 16425,19330 16422,19326 16420,19321 16420,19321 16420,19321 16420,19321 16419,19320 16419,19320 16419,19320 16419,19319 16419,19319 16419,19318 16419,19318 16418,19318 16418,19318 16408,19304 16408,19303 16407,19303 16407,19303 16407,19303 16407,19302 16407,19302 16406,19301 16406,19301 16406,19301 16406,19300 16406,19300 16405,19300 16403,19297 16401,19293 16399,19290 16397,19287 16394,19283 16387,19273 16386,19272 16386,19272 16386,19272 16385,19271 16385,19270 16384,19270 16383,19269 16383,19268 16383,19268 16382,19268 16382,19267 16382,19267 16381,19266 16381,19265 16379,19263 16378,19261 16378,19260 16377,19260 16376,19259 16375,19258 16374,19256 16373,19255 16373,19254 16372,19254 16372,19253 16371,19252 16371,19251 16370,19250 16369,19249 16369,19248 16364,19243 16364,19243 16364,19243 16364,19243 16364,19242 16364,19242 16364,19242 16363,19241 16363,19241 16363,19241 16362,19240 16361,19239 16361,19238 16360,19237 16360,19237 16359,19236 16359,19236 16358,19235 16351,19227 16344,19218 16338,19208 16332,19198 16327,19188 16323,19179 16321,19175 16320,19171 16319,19168 16319,19165 16320,19149 16321,19125 16323,19095 16349,19090 16349,19091 16352,19093 16355,19096 16360,19099 16363,19100 16366,19101 16370,19103 16373,19103 16377,19104 16381,19104 16385,19104 16389,19103 16391,19103 16394,19102 16402,19097 16425,19084 16484,19044 16563,18986 16498,18890 16522,18886 16578,18876 16610,18871 16640,18868 16665,18866 16674,18867 16678,18867 16681,18868 16684,18869 16688,18869 16695,18869 16704,18869 16713,18868 16733,18863 16754,18857 16774,18851 16792,18844 16816,18834 16828,18828 16850,18819 16906,18795 16982,18764 17074,18738 17129,18770 17193,18829 17225,18858 17258,18886 17298,18919 17314,18932 17343,18955 17367,18959 17482,18976 17576,18929 17633,18873 17758,18747 17924,18580 17959,18527 18052,18380 18170,18194 18242,18066 18271,18021 18349,17998 18423,17955 18428,17955 18471,17947 18513,17950 18583,17967 18653,17967 18760,17948 18829,17936 18836,17933 18934,17888 18952,17880 19003,17840 19007,17838 19070,17787 19149,17753 19202,17748 19267,17753 19329,17748 19349,17705 19377,17634 19422,17621 19452,17641 19455,17709 19481,17793 19551,17869 19596,17923 19724,18128 19729,18191 19709,18229 19680,18268 19692,18301 19697,18377 19685,18456 19652,18481 19600,18520 19488,18562 19475,18590 19460,18622 19477,18676 19484,18689 19486,18695 19539,18802 19577,18806 19654,18813 19789,18860 19854,18855 19932,18871 19964,18893 20014,18939 20056,18934 20116,18900 20194,18850 20269,18785 20271,18783 20386,18715 20464,18697 20468,18700 20546,18732 20599,18727 20607,18668 20591,18588 20603,18516 20611,18462 20558,18345 20533,18285 20566,18244 20651,18223 20668,18188 20659,18147 20603,18122 20524,18097 20491,18038 20475,17975 20405,17937 20337,17915 20327,17912 20290,17834 20263,17751 20252,17719 20231,17658 20174,17605 20128,17602 20045,17599 19930,17639 19763,17639 19686,17594 19686,17594 19628,17561 19609,17516 19609,17485 19608,17410 19653,17312 19684,17283 19749,17220 19806,17088 19813,16996 19825,16931 19915,16911 19941,16859 19943,16811 19947,16746 19918,16714 19881,16674 19881,16641 19881,16622 19892,16553 19895,16537 19970,16425 20079,16209 20150,16038 20161,16019 20211,15938 20228,15889 20239,15841 20256,15798 20284,15755 20298,15738 20321,15719 20350,15696 20389,15671 20408,15661 20438,15654 20460,15646 20469,15620 20475,15603 20478,15592 20472,15578 20464,15556 20445,15513 20423,15321 20419,15290 20417,15281 20406,15245 20380,15166 20367,14982 20380,14818 20425,14727 20457,14654 20457,14639 20457,14575 20457,14457 20453,14435 7891,14435 7891,14436 Z"/>
        </g>
       </g>
       <g class="com.sun.star.drawing.PolyPolygonShape">
        <g id="id5">
         <rect class="BoundingBox" stroke="none" fill="none" x="576" y="1906" width="23557" height="6267"/>
         <path fill="rgb(255,255,255)" stroke="none" d="M 16714,1934 L 16690,1969 16698,2027 16716,2083 16718,2133 16678,2176 16632,2205 16539,2204 16484,2152 16456,2166 16436,2212 16377,2247 16291,2246 16279,2246 16231,2244 16118,2267 16060,2295 16030,2386 16002,2409 15916,2446 15831,2460 15784,2468 15728,2523 15705,2577 15703,2608 15617,2730 15532,2806 15474,2883 15469,2941 15491,3031 15468,3061 15398,3117 15256,3162 15134,3199 15102,3218 15007,3271 14954,3303 14882,3298 14844,3259 14738,3166 14652,3156 14544,3073 14529,3065 14450,3021 14418,3003 14305,3013 14225,3063 14180,3087 14071,3147 13887,3272 13782,3300 13755,3309 13694,3312 13598,3284 13584,3276 13549,3254 13497,3224 13449,3174 13420,3155 13357,3158 13311,3149 13290,3032 13184,2871 13137,2819 13092,2770 13030,2769 12957,2767 12914,2765 12815,2761 12736,2754 12652,2710 12442,2732 12329,2694 12315,2690 12273,2677 12214,2687 12175,2709 12108,2809 12075,2814 12053,2798 12030,2748 12046,2668 12081,2596 12098,2537 12088,2507 12004,2487 11986,2484 11886,2478 11884,2478 11785,2489 11757,2491 11646,2497 11642,2497 11612,2503 11537,2517 11310,2658 11180,2738 11073,2750 10924,2697 10810,2643 10649,2570 10643,2559 10604,2488 10357,2394 10200,2386 10088,2390 9981,2437 9940,2442 9865,2450 9701,2485 9548,2517 9569,2651 9477,2776 9450,2797 9404,2834 9376,2858 9267,2941 9225,2933 9146,2840 8979,2822 8938,2771 8871,2498 8877,2312 8828,2240 8770,2218 8706,2192 8640,2150 8581,2151 8580,2152 8530,2198 8520,2250 8516,2280 8494,2368 8452,2414 8316,2449 8144,2481 7996,2495 7846,2493 7705,2449 7696,2446 7677,2460 7625,2497 7617,2503 7538,2565 7484,2581 7434,2545 7429,2542 7282,2511 7262,2430 7261,2426 7256,2423 7157,2389 7152,2386 7140,2383 7052,2323 6958,2319 6941,2318 6917,2317 6818,2313 6697,2270 6600,2215 6595,2212 6593,2212 6534,2222 6525,2221 6524,2221 6415,2194 6290,2201 6155,2242 6142,2247 6117,2259 6077,2278 6036,2298 6014,2244 5933,2178 5920,2178 5852,2180 5814,2182 5801,2182 5710,2215 5686,2223 5682,2223 5633,2217 5624,2216 5568,2185 5544,2172 5506,2151 5480,2137 5447,2118 5331,2101 5199,2062 5076,2064 4977,2091 4813,2127 4592,2144 4592,2222 4567,2248 4548,2317 4545,2326 4507,2384 4476,2415 4414,2423 4393,2440 4323,2495 4187,2539 4109,2545 3989,2487 3918,2532 3916,2532 3876,2545 3849,2565 3831,2577 3750,2675 3646,2720 3547,2782 3490,2835 3433,2884 3316,2911 3263,2906 3156,2870 3111,2861 2929,2828 2738,2961 2685,3019 2682,3020 2626,3051 2614,3057 2586,3063 2537,3058 2487,3053 2435,3072 2405,3089 2369,3162 2338,3244 2337,3245 2324,3309 2301,3351 2180,3418 2120,3448 2053,3482 1983,3514 1870,3536 1765,3634 1524,3962 1470,4000 1465,4003 1382,4021 1353,4045 1345,4070 1333,4102 1337,4143 1363,4222 1391,4301 1386,4329 1380,4345 1282,4571 1257,4603 1194,4647 1194,4647 1084,4621 1024,4606 963,4605 922,4611 916,4612 906,4616 844,4644 761,4698 674,4739 680,4761 702,4971 706,5183 705,5207 671,5365 637,5627 583,5796 576,5864 602,6132 626,6183 621,6430 648,6557 648,6707 650,6713 671,6848 704,6933 723,7046 728,7120 732,7194 813,7252 857,7329 891,7383 895,7386 949,7470 963,7542 967,7559 987,7663 996,7726 1002,7759 1095,8049 1124,8171 24105,8171 24106,8024 24115,7898 24126,7786 24132,7733 24124,7713 24081,7611 24062,7640 23946,7638 23881,7638 23854,7641 23837,7642 23745,7651 23691,7614 23496,7500 23430,7447 23421,7439 23256,7402 23157,7416 23084,7397 23066,7392 23059,7340 23021,7257 22933,7115 22779,7087 22766,7084 22763,7082 22710,7038 22702,7032 22645,6986 22605,6913 22550,6817 22541,6799 22511,6709 22476,6570 22465,6530 22436,6418 22338,6267 22180,6177 22023,6050 21914,5960 21687,5630 21675,5613 21551,5436 21399,5362 21364,5334 21273,5266 21269,5265 21264,5262 21118,5211 21114,5210 21077,5194 21013,5163 21012,5162 20960,5114 20929,5082 20914,5037 20910,5003 20878,4946 20818,4922 20777,4922 20761,4902 20711,4816 20706,4811 20626,4779 20560,4758 20466,4727 20366,4683 20285,4630 20198,4576 20156,4529 20130,4475 20124,4436 20124,4394 20129,4328 20129,4300 20132,4277 20136,4238 20137,4181 20132,4115 20105,4108 20066,4130 20013,4172 19958,4199 19878,4188 19764,4184 19639,4171 19619,4140 19588,4012 19555,3980 19488,3975 19449,3985 19423,4001 19422,4039 19410,4088 19374,4113 19359,4114 19304,4121 19248,4115 19194,4062 19139,4048 19067,4077 19031,4117 18964,4040 18926,4032 18805,4058 18699,4061 18642,4096 18602,4129 18544,4108 18497,4057 18416,3956 18346,3945 18314,3904 18267,3856 18257,3845 18209,3843 18117,3888 18058,3918 17974,3924 17870,3896 17734,3844 17671,3832 17658,3830 17628,3749 17626,3741 17605,3721 17601,3708 17578,3617 17578,3615 17552,3542 17552,3528 17549,3502 17546,3458 17544,3418 17541,3312 17520,3277 17484,3231 17459,3196 17450,3193 17414,3179 17413,3176 17374,3115 17348,3072 17323,3033 17295,3018 17280,3010 17272,3003 17248,2986 17231,2974 17136,2920 17104,2840 17108,2724 17104,2581 17028,2453 16899,2243 16854,2122 16858,2053 16877,1978 16864,1939 16788,1907 16714,1934 Z M 749,7241 L 749,7241 722,7242 748,7299 761,7327 776,7363 820,7934 813,8171 936,8171 934,8110 941,7985 941,7950 941,7943 943,7847 929,7752 924,7681 942,7577 895,7461 867,7393 865,7386 789,7261 785,7252 777,7250 749,7241 Z"/>
        </g>
       </g>
      </g>
     </g>
    </g>
   </g>
  </g>
 </g>
</svg>