<svg xmlns="http://www.w3.org/2000/svg" viewBox="0 0 283 283" width="283" height="283">
	<defs>
		<clipPath clipPathUnits="userSpaceOnUse" id="cp1">
			<path d="M0 0L283 0L283 283L0 283Z" />
		</clipPath>
	</defs>
	<style>
		tspan { white-space:pre }
		.shp0 { fill: #ffffff } 
		.shp1 { fill: #65666b } 
		.shp2 { fill: #0646a5 } 
		.shp3 { fill: #c4c5c7 } 
		.shp4 { fill: #ffeb3d } 
	</style>
	<g id="Page 1" clip-path="url(#cp1)">
		<path id="Path 1" class="shp0" d="M64.61,234.25h114.15v-50.75h-114.15z" />
		<path id="Path 2" class="shp1" d="M71.28,193.31c0,-0.23 0.11,-0.36 0.36,-0.36h6.63c0.22,0 0.34,0.13 0.34,0.34v1.12c0,0.22 -0.09,0.32 -0.36,0.32h-4.91v3.1h4.36c0.23,0 0.36,0.11 0.36,0.32v1.12c0,0.22 -0.09,0.32 -0.36,0.32h-4.36v3.55h5.04c0.22,0 0.32,0.11 0.32,0.34v1.1c0,0.23 -0.09,0.32 -0.34,0.32h-6.72c-0.25,0 -0.36,-0.11 -0.36,-0.32zM87.05,204.91h-1.28c-0.27,0 -0.34,-0.13 -0.34,-0.34v-0.56l-0.04,-0.02c-0.7,0.49 -1.93,1.08 -3.03,1.08c-2.43,0 -2.66,-1.44 -2.66,-3.33v-5.29c0,-0.22 0.09,-0.36 0.34,-0.36h1.31c0.23,0 0.32,0.13 0.32,0.36v5.06c0,1.08 0.22,1.76 1.32,1.76c0.77,0 1.96,-0.58 2.43,-0.81v-6.01c0,-0.22 0.07,-0.36 0.34,-0.36h1.28c0.25,0 0.34,0.13 0.34,0.36v8.12c0,0.23 -0.09,0.34 -0.34,0.34zM90.9,204.57c0,0.22 -0.09,0.34 -0.34,0.34h-1.3c-0.25,0 -0.34,-0.11 -0.34,-0.34v-8.12c0,-0.23 0.09,-0.36 0.34,-0.36h1.28c0.27,0 0.36,0.14 0.36,0.36v0.79l0.04,0.03c0.54,-0.5 1.82,-1.12 2.66,-1.28c0.23,-0.05 0.4,0 0.43,0.31l0.13,1.21c0.02,0.25 0.04,0.36 -0.34,0.43c-1.01,0.2 -2.29,0.56 -2.92,0.83zM98.46,205.05c-3.62,0 -3.85,-2.65 -3.85,-4.7c0,-1.69 0.38,-4.45 3.85,-4.45c3.49,0 3.98,2.32 3.98,4.45c0,2.05 -0.25,4.7 -3.98,4.7zM98.48,197.64c-1.53,0 -1.87,0.97 -1.87,2.85c0,1.91 0.34,2.85 1.86,2.85c1.64,0 1.96,-0.92 1.96,-2.85c0,-1.91 -0.31,-2.85 -1.94,-2.85zM107.67,205.07c-0.59,0 -1.42,-0.11 -2.25,-0.4l-0.02,0.02v3.17c0,0.2 -0.05,0.36 -0.34,0.36h-1.28c-0.29,0 -0.34,-0.13 -0.34,-0.36v-11.42c0,-0.23 0.09,-0.36 0.34,-0.36h1.28c0.25,0 0.32,0.14 0.32,0.36v0.54l0.06,0.03c0.65,-0.45 1.8,-1.08 2.84,-1.08c2.36,0 2.97,1.78 2.97,4.5c0,2.94 -0.74,4.63 -3.58,4.63zM107.82,197.74c-0.74,0 -1.87,0.52 -2.41,0.81v4.5c0.81,0.23 1.46,0.31 2.07,0.31c1.3,0 1.75,-0.67 1.75,-2.93c0,-2.29 -0.45,-2.68 -1.4,-2.68zM116.17,205.05c-3.62,0 -3.85,-2.65 -3.85,-4.7c0,-1.69 0.38,-4.45 3.85,-4.45c3.49,0 3.98,2.32 3.98,4.45c0,2.05 -0.25,4.7 -3.98,4.7zM116.19,197.64c-1.53,0 -1.87,0.97 -1.87,2.85c0,1.91 0.34,2.85 1.86,2.85c1.64,0 1.96,-0.92 1.96,-2.85c0,-1.91 -0.31,-2.85 -1.94,-2.85zM124.5,205.05c-0.9,0 -2.11,-0.13 -2.79,-0.4c-0.36,-0.15 -0.43,-0.31 -0.38,-0.59l0.13,-0.59c0.05,-0.29 0.18,-0.31 0.47,-0.27c0.79,0.13 1.95,0.22 2.56,0.22c1.15,0 1.62,-0.31 1.62,-1.03c0,-0.83 -0.31,-1.01 -1.44,-1.17c-1.77,-0.25 -3.31,-0.63 -3.31,-2.59c0,-1.78 1.37,-2.72 3.39,-2.72c0.74,0 1.98,0.11 2.74,0.4c0.31,0.13 0.43,0.27 0.38,0.54l-0.14,0.65c-0.05,0.25 -0.16,0.29 -0.49,0.25c-0.78,-0.09 -1.78,-0.2 -2.45,-0.2c-1.15,0 -1.42,0.32 -1.42,1.01c0,0.7 0.43,0.79 1.53,0.97c1.71,0.25 3.26,0.59 3.26,2.74c0,2.11 -1.78,2.79 -3.64,2.79zM73.34,217.72l1.37,-1.76l3.03,-3.73c0.16,-0.18 0.31,-0.27 0.59,-0.27h1.64c0.25,0 0.32,0.18 0.16,0.36l-3.91,4.75l4.03,6.46c0.14,0.23 0.02,0.38 -0.18,0.38h-1.66c-0.31,0 -0.43,-0.13 -0.58,-0.34l-2.95,-4.9l-1.59,1.96v2.94c0,0.2 -0.07,0.34 -0.32,0.34h-1.35c-0.25,0 -0.36,-0.11 -0.36,-0.34v-11.25c0,-0.23 0.11,-0.36 0.36,-0.36h1.35c0.25,0 0.32,0.14 0.32,0.36v5.4zM84.8,224.05c-3.62,0 -3.85,-2.65 -3.85,-4.7c0,-1.69 0.38,-4.45 3.85,-4.45c3.49,0 3.98,2.32 3.98,4.45c0,2.05 -0.25,4.7 -3.98,4.7zM84.82,216.64c-1.53,0 -1.87,0.97 -1.87,2.85c0,1.91 0.34,2.85 1.86,2.85c1.64,0 1.96,-0.92 1.96,-2.85c0,-1.91 -0.31,-2.85 -1.94,-2.85zM102.39,223.91h-1.3c-0.25,0 -0.34,-0.11 -0.34,-0.34v-5.11c0,-1.33 -0.32,-1.71 -1.22,-1.71c-0.67,0 -1.75,0.52 -2.3,0.81c0,0.18 0.02,0.5 0.02,0.92v5.1c0,0.22 -0.07,0.34 -0.34,0.34h-1.31c-0.23,0 -0.31,-0.11 -0.31,-0.34v-5.2c0,-1.1 -0.29,-1.62 -1.19,-1.62c-0.63,0 -1.64,0.45 -2.32,0.81v6.01c0,0.22 -0.09,0.34 -0.34,0.34h-1.3c-0.23,0 -0.32,-0.11 -0.32,-0.34v-8.12c0,-0.23 0.09,-0.36 0.32,-0.36h1.28c0.27,0 0.36,0.14 0.36,0.36v0.52l0.02,0.02c0.7,-0.49 1.69,-1.03 2.68,-1.06c1.04,0 1.91,0.22 2.47,1.26c0.9,-0.67 2.02,-1.26 3.17,-1.26c2.38,0 2.61,1.55 2.61,3.35v5.29c0,0.22 -0.07,0.34 -0.32,0.34zM106.15,223.57c0,0.2 -0.07,0.34 -0.32,0.34h-1.28c-0.25,0 -0.36,-0.11 -0.36,-0.34v-8.14c0,-0.25 0.11,-0.34 0.36,-0.34h1.28c0.25,0 0.32,0.14 0.32,0.34zM105.2,213.79c-0.94,0 -1.06,-0.52 -1.06,-1.04c0,-0.58 0.2,-1.03 1.06,-1.03c0.88,0 1.06,0.41 1.06,1.03c0,0.56 -0.16,1.04 -1.06,1.04zM110.62,224.05c-0.9,0 -2.11,-0.13 -2.79,-0.4c-0.36,-0.15 -0.43,-0.31 -0.38,-0.59l0.13,-0.59c0.05,-0.29 0.18,-0.31 0.47,-0.27c0.79,0.13 1.95,0.22 2.56,0.22c1.15,0 1.62,-0.31 1.62,-1.03c0,-0.83 -0.31,-1.01 -1.44,-1.17c-1.77,-0.25 -3.31,-0.63 -3.31,-2.59c0,-1.78 1.37,-2.72 3.39,-2.72c0.74,0 1.98,0.11 2.74,0.4c0.31,0.13 0.43,0.27 0.38,0.54l-0.14,0.65c-0.05,0.25 -0.16,0.29 -0.49,0.25c-0.78,-0.09 -1.78,-0.2 -2.45,-0.2c-1.15,0 -1.42,0.32 -1.42,1.01c0,0.7 0.43,0.79 1.53,0.97c1.71,0.25 3.26,0.59 3.26,2.74c0,2.11 -1.78,2.79 -3.64,2.79zM117.42,223.57c0,0.2 -0.07,0.34 -0.32,0.34h-1.28c-0.25,0 -0.36,-0.11 -0.36,-0.34v-8.14c0,-0.25 0.11,-0.34 0.36,-0.34h1.28c0.25,0 0.32,0.14 0.32,0.34zM116.46,213.79c-0.94,0 -1.06,-0.52 -1.06,-1.04c0,-0.58 0.2,-1.03 1.06,-1.03c0.88,0 1.06,0.41 1.06,1.03c0,0.56 -0.16,1.04 -1.06,1.04zM120.42,213.79c-0.94,0 -1.06,-0.52 -1.06,-1.04c0,-0.58 0.22,-1.03 1.06,-1.03c0.88,0 1.06,0.41 1.06,1.03c0,0.56 -0.16,1.04 -1.06,1.04zM121.41,224.11c0,2.34 -0.99,3.66 -4.02,3.55c-0.13,0 -0.38,-0.07 -0.4,-0.36l-0.07,-0.85c-0.04,-0.29 0.04,-0.34 0.29,-0.4c1.69,-0.34 2.21,-0.5 2.21,-1.91v-8.72c0,-0.25 0.11,-0.34 0.36,-0.34h1.26c0.27,0 0.36,0.14 0.36,0.34zM128.51,222.88c-0.9,0.68 -2.11,1.17 -3.31,1.17c-1.91,0 -2.47,-1.04 -2.47,-2.56c-0.02,-2.11 1.12,-3.01 3.38,-3.01h2.3v-0.47c0,-1.08 -0.4,-1.46 -1.87,-1.46c-0.59,0 -1.73,0.09 -2.45,0.16c-0.36,0.05 -0.45,0.04 -0.5,-0.22l-0.16,-0.67c-0.04,-0.23 0.02,-0.38 0.41,-0.54c0.77,-0.27 2.2,-0.4 3.04,-0.4c3.12,0 3.49,1.28 3.49,3.29v3.48c0,0.74 0.09,0.76 0.65,0.83c0.27,0.02 0.34,0.07 0.34,0.27v0.76c0,0.2 -0.13,0.32 -0.43,0.38c-0.29,0.05 -0.58,0.09 -0.85,0.09c-0.85,0 -1.37,-0.25 -1.55,-1.1zM128.4,219.89h-2.2c-0.9,0 -1.48,0.32 -1.48,1.51c0,0.79 0.27,1.05 1.12,1.05c0.77,0 1.87,-0.45 2.56,-0.85z" />
		<path id="Path 3" class="shp2" d="M64.61,239.26h114.15v-6.52h-114.15z" />
		<path id="Path 4" class="shp3" d="M10.45,103.36c0,0 78.51,-10.24 80.73,-10.6c3.4,-0.56 6.42,-1.21 9.23,-2c6.35,-1.75 12.2,-4.43 17.37,-7.95c4.96,-3.35 9.58,-8.23 14.15,-13.58c2.91,-3.4 5.97,-7.84 8.82,-12.13v-2.07c-3.38,5.04 -6.71,9.39 -10.14,13.22c-4.54,5.09 -9.3,9.26 -14.15,12.38c-5.01,3.25 -10.65,5.68 -16.76,7.21c-2.74,0.7 -5.67,1.26 -8.97,1.72c-2.17,0.31 -4.41,0.55 -6.58,0.77c-0.86,0.09 -73.69,7.88 -73.69,7.88zM115.73,90.1c-4.91,2.85 -10.59,4.93 -16.87,6.19c-2.68,0.55 -5.6,0.99 -8.94,1.36c-1.96,0.21 -3.93,0.39 -5.9,0.56c-1.07,0.09 -2.13,0.19 -3.19,0.28c-24.06,2.17 -47.99,4.48 -70.38,6.68v5.13c22.56,-2.74 46.66,-5.64 70.71,-8.39c1.07,-0.13 2.14,-0.25 3.21,-0.36c1.97,-0.22 3.94,-0.44 5.92,-0.7c3.42,-0.46 6.42,-0.99 9.15,-1.61c6.52,-1.47 12.42,-3.79 17.51,-6.9c5.06,-3.06 9.53,-7.35 14.34,-12.59c3,-3.26 6.33,-7.86 9.44,-12.19v-1.88c-3.67,5.02 -7.15,9.23 -10.6,12.83c-4.7,4.9 -9.54,8.8 -14.4,11.59zM129.47,88.84c-4.79,4.43 -9.79,7.91 -14.87,10.35c-4.96,2.41 -10.52,4.1 -16.98,5.18c-2.67,0.44 -5.57,0.81 -8.86,1.11l-78.32,6.48v5.12l69.62,-7.44l9.01,-0.95c3.39,-0.39 6.35,-0.84 9.04,-1.35c6.69,-1.27 12.44,-3.18 17.55,-5.81c5.23,-2.66 10.45,-7.1 15.31,-11.79c3.26,-3.15 6.4,-7.21 9.75,-11.48v-1.71c-3.87,4.85 -7.57,8.9 -11.27,12.31zM110.54,115.43c-4.56,2.57 -7.97,4.05 -14.48,4.74c-3.94,0.43 -7.98,0.63 -11.89,0.83c-1.89,0.09 -3.79,0.19 -5.68,0.31c-11.83,0.68 -23.45,1.44 -35.31,2.22l-32.73,2.22v5.12l33.05,-3.06c10.68,-0.97 23.09,-2.08 35.21,-3.07l8.81,-0.69c3.44,-0.27 6.26,-0.55 8.87,-0.89c6.7,-0.87 12.42,-2.23 17.49,-4.17c5.46,-2.06 10.61,-5.25 15.77,-9.01c4.65,-3.38 11.08,-10.06 11.09,-10.15v-1.81c-4.21,4.14 -6.63,6.46 -11.23,9.52c-5.5,3.65 -14.89,5.6 -18.97,7.9zM112.2,125.16c-4.94,1.46 -10.5,2.45 -17,3.02c-2.63,0.23 -5.47,0.41 -8.68,0.54l-8.76,0.39c-21.77,1.02 -43.43,2.16 -67.31,3.43v5.11c22.81,-1.78 45.16,-3.51 67.5,-5.11l8.73,-0.6c3.37,-0.22 6.17,-0.47 8.8,-0.76c6.66,-0.75 12.36,-1.91 17.42,-3.54c5.61,-1.79 11.07,-4.38 16.24,-7.71c3.82,-2.45 7.64,-5.37 11.6,-8.85v-0.09c-4.36,3.76 -8.53,4.59 -12.67,7.11c-5.08,3.1 -10.42,5.48 -15.87,7.08zM111.39,133.65c-4.98,1.17 -10.37,1.93 -16.97,2.37c-2.55,0.17 -5.28,0.3 -8.62,0.4l-8.68,0.31c-21.86,0.83 -44.02,1.79 -66.67,2.78v5.11c22.5,-1.55 44.58,-3.05 66.84,-4.46l8.66,-0.52c3.39,-0.19 6.16,-0.39 8.7,-0.63c6.73,-0.62 12.23,-1.54 17.32,-2.87c5.71,-1.48 11.26,-3.65 16.5,-6.46c4.05,-2.16 8.09,-4.76 12.27,-7.89v-2.18c-4.52,3.29 -8.86,5.98 -13.21,8.16c-5.14,2.6 -10.57,4.57 -16.14,5.87zM110.65,141.96c-4.99,0.92 -10.37,1.51 -16.93,1.85c-2.47,0.13 -5.1,0.22 -8.56,0.3l-74.72,2.04v5.1l66.26,-3.48l8.58,-0.44c3.35,-0.16 6.09,-0.32 8.62,-0.52c6.65,-0.51 12.11,-1.25 17.2,-2.32c5.78,-1.21 11.39,-2.97 16.67,-5.24c4.25,-1.82 8.52,-4.03 12.95,-6.73v-2.05c-4.74,2.78 -9.25,5.01 -13.73,6.79c-5.21,2.09 -10.71,3.67 -16.36,4.7zM110.07,150.32c-9.17,1.23 -18.61,1.38 -27.74,1.51c-2.09,0.03 -4.18,0.06 -6.27,0.11l-65.61,1.19v5.09l65.72,-2.85c2.08,-0.1 4.17,-0.18 6.26,-0.26c9.19,-0.37 18.7,-0.75 27.99,-2.24c5.88,-0.93 11.54,-2.32 16.83,-4.11c4.38,-1.48 8.91,-3.39 13.5,-5.64v-1.95c-4.82,2.26 -9.57,4.15 -14.12,5.56c-5.22,1.63 -10.79,2.84 -16.55,3.6zM109.54,158.72c-8.59,0.71 -17.38,0.72 -25.89,0.72c-2.65,0 -5.29,0 -7.93,0.02c-21.73,0.1 -43.3,0.28 -65.27,0.47v5.1c20.93,-0.72 43.14,-1.47 65.35,-2.13c2.64,-0.09 5.27,-0.16 7.91,-0.22c8.55,-0.22 17.39,-0.44 26.07,-1.39c6.06,-0.65 11.58,-1.62 16.87,-2.93c4.61,-1.14 9.34,-2.66 14.1,-4.49v-1.87c-4.91,1.77 -9.8,3.22 -14.56,4.28c-5.23,1.16 -10.68,1.97 -16.64,2.46zM109.21,167.01c-3.58,0.14 -7.45,0.21 -11.85,0.21c-1.66,0 -3.32,-0.01 -4.98,-0.02l-16.91,-0.21c-11.54,-0.09 -23.03,-0.11 -33.82,-0.12l-31.21,0.03v5.09l31.28,-0.83c10.74,-0.26 22.27,-0.54 33.77,-0.75l16.9,-0.22c4.64,-0.08 10.75,-0.21 16.95,-0.62c6.07,-0.4 11.59,-1 16.89,-1.86c4.77,-0.77 9.64,-1.8 14.5,-3.05v-1.81c-5,1.16 -9.98,2.09 -14.8,2.74c-5.27,0.71 -10.74,1.17 -16.73,1.41zM92.19,175.02l-16.85,-0.18c-21.5,-0.3 -42.98,-0.7 -64.88,-1.11v5.1c20.91,-0.14 43.06,-0.3 64.9,-0.55l16.86,-0.25c5.68,-0.1 11.25,-0.2 16.87,-0.39c11.58,-0.37 21.96,-1.19 31.66,-2.49v-1.77c-9.74,1.05 -20.13,1.61 -31.72,1.69c-5.61,0.05 -11.22,0.01 -16.84,-0.04zM140.74,184.03l-130.29,-3.33v5.09h130.29zM129.01,98.46c-4.95,4.01 -8.77,6.85 -14.83,9.28c-5.27,2.11 -10.94,2.98 -17.41,3.87c-4.17,0.59 -8.52,1.46 -12.68,1.74c-1.71,0.12 -3.42,0.23 -5.13,0.36l-68.51,5.03v5.11l68.79,-6.72l8.92,-0.84c3.31,-0.32 6.24,-0.68 8.98,-1.13c6.67,-1.08 12.41,-2.73 17.56,-5.03c5.34,-2.37 10.75,-6.26 15.77,-10.52c3.42,-2.89 6.71,-6.53 10.28,-10.5v-1.83c-4.33,4.51 -7.91,8.11 -11.73,11.19zM196.19,63.85c0,0 22.14,31.82 27.52,39.31c6.47,9 12.26,10.06 26.45,13.23c14.18,3.17 25.21,5.52 25.21,5.52v-1.33c0,0 -7.55,-1.74 -24.9,-5.42c-17.35,-3.68 -22.25,-9.1 -26.54,-15.94c-4.29,-6.85 -27.74,-44.19 -27.74,-44.19zM196.19,104.26c0,0 21.44,20.1 27.45,25.64c6.71,6.18 14.91,7.3 26.63,9.31c11.95,2.05 25.09,4.2 25.09,4.2v-1.26c0,0 -14,-2.29 -25.09,-4.27c-11.62,-2.08 -20.01,-4.6 -26.56,-11.41c-6.17,-6.42 -27.52,-28.79 -27.52,-28.79zM196.19,113.92c0,0 19.31,15.91 27.52,22.56c7.11,5.76 14.68,6.51 26.56,8.4c11.88,1.89 25.09,4.06 25.09,4.06v-1.33c0,0 -10.41,-1.61 -25.02,-4.2c-14.61,-2.59 -19.99,-4.43 -26.63,-10.36c-7.22,-6.44 -27.52,-25.29 -27.52,-25.29zM196.19,124.18c0,0 18.86,13.28 27.59,19.09c8.97,5.97 16.64,6.51 26.63,7.77c10,1.26 24.95,3.43 24.95,3.43v-1.4c0,0 -8.46,-1.19 -24.95,-3.57c-16.63,-2.4 -22.37,-6.16 -26.7,-9.38c-4.33,-3.22 -27.52,-21.61 -27.52,-21.61zM196.19,134.07c0,0 19.34,11.3 27.52,15.78c8.18,4.48 15.66,6.09 26.63,7.28c10.97,1.19 25.02,2.73 25.02,2.73v-1.33c0,0 -7.97,-0.98 -24.95,-3.15c-16.99,-2.17 -22.16,-6.16 -26.56,-8.61c-4.4,-2.45 -27.66,-17.94 -27.66,-17.94zM196.19,144.06c0,0 19.24,8.97 27.52,12.65c9.25,4.1 13.82,4.66 26.63,5.88c12.93,1.22 25.02,2.52 25.02,2.52v-1.26c0,0 -13.08,-1.38 -25.02,-2.8c-12.16,-1.45 -18.87,-3.31 -26.63,-7.21c-6.96,-3.49 -27.52,-14.68 -27.52,-14.68zM196.19,154.32c0,0 17.85,6.23 27.59,9.46c9.62,3.2 14.75,3.64 26.63,4.69c11.88,1.05 24.95,2.1 24.95,2.1v-1.26c0,0 -21.88,-2.25 -24.88,-2.59c-6.83,-0.77 -15.4,-1.15 -26.63,-5.6c-11.42,-4.53 -27.66,-11.49 -27.66,-11.49zM196.19,164.71c0,0 20.26,4.81 27.52,6.42c6.55,1.45 15.49,2.29 26.63,3.08c13.77,0.98 25.03,1.75 25.03,1.75v-1.19c0,0 -19.79,-1.61 -24.96,-1.96c-5.17,-0.35 -15.45,-1.54 -26.63,-4.48c-11.18,-2.94 -27.59,-8.02 -27.59,-8.02zM196.19,175c0,0 14.35,1.82 27.52,3.19c5.88,0.61 16.22,1.24 26.63,1.82c9.99,0.55 25.02,1.33 25.02,1.33v-1.26c0,0 -23.48,-1.61 -25.02,-1.68c-1.54,-0.07 -15.94,-1.18 -26.56,-2.94c-14.17,-2.35 -27.59,-4.66 -27.59,-4.66zM196.19,185.79h79.17v-1.23c0,0 -45.15,-1.82 -51.58,-1.96c-6.43,-0.14 -27.59,-0.94 -27.59,-0.94zM250.34,120.94c-19.15,-4.13 -23.48,-11.13 -26.7,-15.47c-3.22,-4.34 -27.45,-39.75 -27.45,-39.75v7.99c0.95,1.25 21.69,28.4 27.51,35.89c6.56,8.44 16.85,10.36 26.63,12.46c9.78,2.1 25.03,5.03 25.03,5.03v-1.12c0,0 -20.08,-3.96 -25.03,-5.03zM250.34,126.54c-15.73,-3.08 -22.09,-8.05 -26.7,-14.07c-4.61,-6.02 -27.45,-36.11 -27.45,-36.11v7.57c0.95,1.13 21.84,25.91 27.45,32.33c6.54,7.49 15.66,9.45 26.7,11.48c11.04,2.03 25.02,4.69 25.02,4.69v-1.12c0,0 -15.95,-2.98 -25.02,-4.76zM250.34,132.35c-16.35,-3.17 -19.71,-5.78 -26.63,-13.37c-4.35,-4.77 -26.58,-31.01 -27.51,-32.12v6.99c0,0 20.77,22.15 27.45,28.7c8.76,8.59 16.99,9.24 26.7,10.99c9.72,1.75 25.02,4.55 25.02,4.55v-1.19c0,0 -18.48,-3.28 -25.02,-4.55z" />
		<path id="Path 5" class="shp2" d="M178.76,109.43h-114.15v76.36h114.15z" />
		<path id="Path 6" class="shp4" d="M121.74,116.43l-1.2,3.86h-3.96l3.23,2.49l-1.26,3.96l3.19,-2.44l3.19,2.44l-1.24,-3.96l3.2,-2.49h-3.97zM121.89,167.5l-1.2,3.71h-3.97l3.23,2.4l-1.25,3.8l3.19,-2.34l3.19,2.34l-1.24,-3.8l3.2,-2.4h-3.98zM134.49,164.12l-1.2,3.71h-3.97l3.23,2.4l-1.25,3.81l3.19,-2.35l3.19,2.35l-1.24,-3.81l3.2,-2.4h-3.98zM134.49,119.97l-1.2,3.71h-3.97l3.23,2.4l-1.25,3.81l3.19,-2.35l3.19,2.35l-1.24,-3.81l3.2,-2.4h-3.98zM143.83,129.32l-1.2,3.71h-3.96l3.23,2.4l-1.25,3.81l3.18,-2.35l3.19,2.35l-1.24,-3.81l3.2,-2.4h-3.97zM143.83,154.9l-1.2,3.71h-3.96l3.23,2.41l-1.25,3.81l3.18,-2.35l3.19,2.35l-1.24,-3.81l3.2,-2.41h-3.97zM147.34,141.92l-1.21,3.71h-3.96l3.23,2.4l-1.26,3.81l3.19,-2.35l3.19,2.35l-1.24,-3.81l3.2,-2.4h-3.98zM108.9,120l-1.2,3.71h-3.96l3.23,2.4l-1.26,3.81l3.19,-2.35l3.19,2.35l-1.24,-3.81l3.2,-2.4h-3.97zM99.82,129.35l-1.2,3.71h-3.97l3.23,2.4l-1.25,3.81l3.19,-2.35l3.18,2.35l-1.24,-3.81l3.2,-2.4h-3.98zM96.44,141.95l-1.2,3.71h-3.96l3.23,2.4l-1.26,3.81l3.19,-2.34l3.19,2.34l-1.24,-3.81l3.2,-2.4h-3.97zM99.82,154.94l-1.2,3.71h-3.97l3.23,2.41l-1.25,3.81l3.19,-2.35l3.18,2.35l-1.24,-3.81l3.2,-2.41h-3.98zM109.03,164.16l-1.2,3.71h-3.96l3.23,2.4l-1.26,3.81l3.19,-2.35l3.18,2.35l-1.24,-3.81l3.2,-2.4h-3.97z" />
	</g>
</svg>